<svg width="179" height="179" viewBox="0 0 179 179" fill="none" xmlns="http://www.w3.org/2000/svg">
<g clip-path="url(#clip0_30_343)">
<path d="M159.111 19.8889H19.8888C17.2513 19.8889 14.7219 20.9366 12.857 22.8015C10.9921 24.6665 9.94434 27.1959 9.94434 29.8333V149.167C9.94434 151.804 10.9921 154.333 12.857 156.198C14.7219 158.063 17.2513 159.111 19.8888 159.111H159.111C161.748 159.111 164.278 158.063 166.143 156.198C168.008 154.333 169.055 151.804 169.055 149.167V29.8333C169.055 27.1959 168.008 24.6665 166.143 22.8015C164.278 20.9366 161.748 19.8889 159.111 19.8889ZM19.8888 149.167V29.8333H159.111V149.167H19.8888Z" fill="#35477D"/>
<path d="M44.3522 69.6111C47.3025 69.6111 50.1864 68.7363 52.6395 67.0972C55.0925 65.4581 57.0044 63.1285 58.1334 60.4028C59.2624 57.6771 59.5578 54.6779 58.9823 51.7843C58.4067 48.8908 56.986 46.2329 54.8999 44.1468C52.8138 42.0606 50.1559 40.64 47.2623 40.0644C44.3688 39.4888 41.3695 39.7842 38.6439 40.9132C35.9182 42.0422 33.5885 43.9542 31.9495 46.4072C30.3104 48.8602 29.4355 51.7442 29.4355 54.6944C29.4355 58.6506 31.0071 62.4447 33.8045 65.2421C36.602 68.0395 40.3961 69.6111 44.3522 69.6111ZM44.3522 46.7389C45.9278 46.729 47.4707 47.1872 48.7855 48.0554C50.1004 48.9236 51.1278 50.1626 51.7375 51.6154C52.3473 53.0682 52.512 54.6693 52.2106 56.2158C51.9093 57.7623 51.1556 59.1845 50.045 60.3021C48.9344 61.4196 47.5169 62.1823 45.9724 62.4933C44.4278 62.8043 42.8257 62.6497 41.3691 62.0491C39.9125 61.4484 38.667 60.4288 37.7907 59.1194C36.9143 57.8101 36.4464 56.27 36.4464 54.6944C36.4594 52.6017 37.2965 50.5984 38.7764 49.1186C40.2562 47.6388 42.2595 46.8017 44.3522 46.7886V46.7389Z" fill="#35477D"/>
<path d="M113.267 76.4231L86.4172 103.273L66.5283 83.3842C65.5967 82.4581 64.3365 81.9383 63.0229 81.9383C61.7093 81.9383 60.4491 82.4581 59.5175 83.3842L29.4355 113.864V127.935L63.1969 94.1739L79.5555 110.284L60.9097 128.93H74.5833L116.599 86.9144L149.167 119.333V105.312L120.278 76.4231C119.346 75.497 118.086 74.9772 116.773 74.9772C115.459 74.9772 114.199 75.497 113.267 76.4231Z" fill="#35477D"/>
</g>
<defs>
<clipPath id="clip0_30_343">
<rect width="179" height="179" fill="white"/>
</clipPath>
</defs>
</svg>
