<svg width="196" height="196" viewBox="0 0 196 196" fill="none" xmlns="http://www.w3.org/2000/svg">
<g clip-path="url(#clip0_30_335)">
<path d="M43.5 185C42.0413 185 40.6424 184.458 39.6109 183.494C38.5795 182.529 38 181.221 38 179.857V25.1434C38 23.7793 38.5795 22.471 39.6109 21.5065C40.6424 20.5419 42.0413 20 43.5 20C44.9587 20 46.3576 20.5419 47.3891 21.5065C48.4205 22.471 49 23.7793 49 25.1434V179.857C49 181.221 48.4205 182.529 47.3891 183.494C46.3576 184.458 44.9587 185 43.5 185Z" fill="#35477D"/>
<path d="M106.444 183.576C105 183.576 103.616 183.002 102.595 181.981C101.574 180.96 101 179.575 101 178.131V48.4444C101 47.0005 101.574 45.6157 102.595 44.5946C103.616 43.5736 105 43 106.444 43C107.888 43 109.273 43.5736 110.294 44.5946C111.315 45.6157 111.889 47.0005 111.889 48.4444V178.131C111.889 179.575 111.315 180.96 110.294 181.981C109.273 183.002 107.888 183.576 106.444 183.576Z" fill="#35477D"/>
<path d="M161.444 185.556C160 185.556 158.616 184.982 157.595 183.961C156.574 182.94 156 181.555 156 180.111V49.4444C156 48.0005 156.574 46.6157 157.595 45.5946C158.616 44.5736 160 44 161.444 44C162.888 44 164.273 44.5736 165.294 45.5946C166.315 46.6157 166.889 48.0005 166.889 49.4444V180.111C166.889 181.555 166.315 182.94 165.294 183.961C164.273 184.982 162.888 185.556 161.444 185.556Z" fill="#35477D"/>
<path d="M182.556 78.8889H46.4444C45.0005 78.8889 43.6157 78.3153 42.5946 77.2943C41.5736 76.2732 41 74.8884 41 73.4444C41 72.0005 41.5736 70.6157 42.5946 69.5946C43.6157 68.5736 45.0005 68 46.4444 68H182.556C184 68 185.384 68.5736 186.405 69.5946C187.426 70.6157 188 72.0005 188 73.4444C188 74.8884 187.426 76.2732 186.405 77.2943C185.384 78.3153 184 78.8889 182.556 78.8889Z" fill="#35477D"/>
<path d="M179.879 108.78H43.768C42.9652 108.981 42.1271 108.997 41.3174 108.825C40.5076 108.654 39.7476 108.3 39.0951 107.791C38.4426 107.282 37.9148 106.631 37.5517 105.887C37.1887 105.143 37 104.327 37 103.499C37 102.671 37.1887 101.854 37.5517 101.111C37.9148 100.367 38.4426 99.7157 39.0951 99.2066C39.7476 98.6974 40.5076 98.3437 41.3174 98.1724C42.1271 98.0011 42.9652 98.0166 43.768 98.2178H179.879C180.691 97.9811 181.546 97.9366 182.378 98.0878C183.209 98.239 183.994 98.5818 184.67 99.0889C185.346 99.596 185.895 100.254 186.273 101.01C186.651 101.766 186.848 102.599 186.848 103.444C186.848 104.29 186.651 105.123 186.273 105.879C185.895 106.635 185.346 107.293 184.67 107.8C183.994 108.307 183.209 108.65 182.378 108.801C181.546 108.952 180.691 108.908 179.879 108.671V108.78Z" fill="#35477D"/>
<path d="M180.879 138.78H44.768C43.9652 138.981 43.1271 138.997 42.3174 138.825C41.5076 138.654 40.7476 138.3 40.0951 137.791C39.4426 137.282 38.9148 136.631 38.5517 135.887C38.1887 135.143 38 134.327 38 133.499C38 132.671 38.1887 131.854 38.5517 131.111C38.9148 130.367 39.4426 129.716 40.0951 129.207C40.7476 128.697 41.5076 128.344 42.3174 128.172C43.1271 128.001 43.9652 128.017 44.768 128.218H180.879C181.691 127.981 182.546 127.937 183.378 128.088C184.209 128.239 184.994 128.582 185.67 129.089C186.346 129.596 186.895 130.254 187.273 131.01C187.651 131.766 187.848 132.599 187.848 133.444C187.848 134.29 187.651 135.123 187.273 135.879C186.895 136.635 186.346 137.293 185.67 137.8C184.994 138.307 184.209 138.65 183.378 138.801C182.546 138.952 181.691 138.908 180.879 138.671V138.78Z" fill="#35477D"/>
<path d="M180.879 168.78H44.768C43.9652 168.981 43.1271 168.997 42.3174 168.825C41.5076 168.654 40.7476 168.3 40.0951 167.791C39.4426 167.282 38.9148 166.631 38.5517 165.887C38.1887 165.143 38 164.327 38 163.499C38 162.671 38.1887 161.854 38.5517 161.111C38.9148 160.367 39.4426 159.716 40.0951 159.207C40.7476 158.697 41.5076 158.344 42.3174 158.172C43.1271 158.001 43.9652 158.017 44.768 158.218H180.879C181.691 157.981 182.546 157.937 183.378 158.088C184.209 158.239 184.994 158.582 185.67 159.089C186.346 159.596 186.895 160.254 187.273 161.01C187.651 161.766 187.848 162.599 187.848 163.444C187.848 164.29 187.651 165.123 187.273 165.879C186.895 166.635 186.346 167.293 185.67 167.8C184.994 168.307 184.209 168.65 183.378 168.801C182.546 168.952 181.691 168.908 180.879 168.671V168.78Z" fill="#35477D"/>
<path d="M179.667 48.5645H16.3331C15.5217 48.8011 14.6664 48.8456 13.8348 48.6944C13.0032 48.5432 12.2182 48.2005 11.542 47.6933C10.8659 47.1862 10.317 46.5286 9.93904 45.7726C9.56105 45.0166 9.36426 44.183 9.36426 43.3378C9.36426 42.4926 9.56105 41.6589 9.93904 40.903C10.317 40.147 10.8659 39.4894 11.542 38.9822C12.2182 38.4751 13.0032 38.1324 13.8348 37.9812C14.6664 37.83 15.5217 37.8745 16.3331 38.1111H179.667C180.469 37.9099 181.307 37.8944 182.117 38.0657C182.927 38.2371 183.687 38.5908 184.339 39.0999C184.992 39.6091 185.52 40.2603 185.883 41.0041C186.246 41.7478 186.434 42.5646 186.434 43.3922C186.434 44.2199 186.246 45.0366 185.883 45.7804C185.52 46.5242 184.992 47.1754 184.339 47.6846C183.687 48.1937 182.927 48.5474 182.117 48.7187C181.307 48.8901 180.469 48.8745 179.667 48.6733V48.5645Z" fill="#35477D"/>
</g>
<defs>
<clipPath id="clip0_30_335">
<rect width="196" height="196" fill="white"/>
</clipPath>
</defs>
</svg>
